<svg id="visual" viewBox="0 0 900 450" width="900" height="450" xmlns="http://www.w3.org/2000/svg" xmlns:xlink="http://www.w3.org/1999/xlink" version="1.1"><rect x="0" y="0" width="900" height="450" fill="#EE00FF"></rect><path d="M0 83L21.5 89.2C43 95.3 86 107.7 128.8 101C171.7 94.3 214.3 68.7 257.2 56.7C300 44.7 343 46.3 385.8 50C428.7 53.7 471.3 59.3 514.2 65C557 70.7 600 76.3 642.8 78.7C685.7 81 728.3 80 771.2 72.8C814 65.7 857 52.3 878.5 45.7L900 39L900 0L878.5 0C857 0 814 0 771.2 0C728.3 0 685.7 0 642.8 0C600 0 557 0 514.2 0C471.3 0 428.7 0 385.8 0C343 0 300 0 257.2 0C214.3 0 171.7 0 128.8 0C86 0 43 0 21.5 0L0 0Z" fill="#6137F7"></path></svg>